<svg width="1440" height="900" xmlns="http://www.w3.org/2000/svg"><path d="M401,1135L74,1179L904,1129Z" fill="#292864" stroke="#292864" stroke-width="1.51"></path><path d="M600,1105L401,1135L904,1129Z" fill="#292762" stroke="#292762" stroke-width="1.51"></path><path d="M904,1129L74,1179L1323,1164Z" fill="#27255e" stroke="#27255e" stroke-width="1.51"></path><path d="M74,1179L-14,1192L1323,1164Z" fill="#292864" stroke="#292864" stroke-width="1.51"></path><path d="M1323,1164L-14,1192L1449,1176Z" fill="#252359" stroke="#252359" stroke-width="1.51"></path><path d="M1491,-135L1608,-81L1674,-262Z" fill="#201f4e" stroke="#201f4e" stroke-width="1.51"></path><path d="M1608,-81L1443,80L1674,93Z" fill="#25245b" stroke="#25245b" stroke-width="1.51"></path><path d="M1674,-262L1608,-81L1674,93Z" fill="#222153" stroke="#222153" stroke-width="1.51"></path><path d="M1581,163L1603,376L1674,93Z" fill="#292762" stroke="#292762" stroke-width="1.51"></path><path d="M1590,927L1564,1127L1686,760Z" fill="#1c1b45" stroke="#1c1b45" stroke-width="1.51"></path><path d="M1465,873L1590,927L1686,760Z" fill="#1d1c48" stroke="#1d1c48" stroke-width="1.51"></path><path d="M1605,669L1504,682L1686,760Z" fill="#222052" stroke="#222052" stroke-width="1.51"></path><path d="M1504,682L1465,873L1686,760Z" fill="#201e4d" stroke="#201e4d" stroke-width="1.51"></path><path d="M1574,459L1605,669L1686,760Z" fill="#242257" stroke="#242257" stroke-width="1.51"></path><path d="M1603,376L1574,459L1686,760Z" fill="#26245c" stroke="#26245c" stroke-width="1.51"></path><path d="M1674,93L1603,376L1686,760Z" fill="#282761" stroke="#282761" stroke-width="1.51"></path><path d="M1441,-288L1491,-135L1674,-262Z" fill="#1e1d49" stroke="#1e1d49" stroke-width="1.51"></path><path d="M1443,80L1581,163L1674,93Z" fill="#27255e" stroke="#27255e" stroke-width="1.51"></path><path d="M1425,926L1564,1127L1590,927Z" fill="#1c1b45" stroke="#1c1b45" stroke-width="1.51"></path><path d="M1581,163L1412,261L1603,376Z" fill="#2a2864" stroke="#2a2864" stroke-width="1.51"></path><path d="M1412,261L1513,406L1603,376Z" fill="#292864" stroke="#292864" stroke-width="1.51"></path><path d="M1513,406L1574,459L1603,376Z" fill="#282761" stroke="#282761" stroke-width="1.51"></path><path d="M1574,459L1489,479L1605,669Z" fill="#26245b" stroke="#26245b" stroke-width="1.51"></path><path d="M1489,479L1504,682L1605,669Z" fill="#242359" stroke="#242359" stroke-width="1.51"></path><path d="M1491,-135L1443,80L1608,-81Z" fill="#232256" stroke="#232256" stroke-width="1.51"></path><path d="M1425,926L1449,1176L1564,1127Z" fill="#1c1b45" stroke="#1c1b45" stroke-width="1.51"></path><path d="M1465,873L1425,926L1590,927Z" fill="#1c1b45" stroke="#1c1b45" stroke-width="1.51"></path><path d="M1443,80L1412,261L1581,163Z" fill="#282660" stroke="#282660" stroke-width="1.51"></path><path d="M1513,406L1489,479L1574,459Z" fill="#28265f" stroke="#28265f" stroke-width="1.51"></path><path d="M1489,479L1386,655L1504,682Z" fill="#252359" stroke="#252359" stroke-width="1.51"></path><path d="M1340,141L1412,261L1443,80Z" fill="#282660" stroke="#282660" stroke-width="1.51"></path><path d="M1425,926L1340,942L1449,1176Z" fill="#1c1b45" stroke="#1c1b45" stroke-width="1.51"></path><path d="M1340,942L1323,1164L1449,1176Z" fill="#1c1b45" stroke="#1c1b45" stroke-width="1.51"></path><path d="M1386,655L1273,802L1465,873Z" fill="#1f1e4d" stroke="#1f1e4d" stroke-width="1.51"></path><path d="M1346,544L1386,655L1489,479Z" fill="#25245b" stroke="#25245b" stroke-width="1.51"></path><path d="M1298,-37L1443,80L1491,-135Z" fill="#242257" stroke="#242257" stroke-width="1.51"></path><path d="M1386,655L1465,873L1504,682Z" fill="#211f50" stroke="#211f50" stroke-width="1.51"></path><path d="M1289,316L1489,479L1513,406Z" fill="#282761" stroke="#282761" stroke-width="1.51"></path><path d="M1412,261L1289,316L1513,406Z" fill="#2a2865" stroke="#2a2865" stroke-width="1.51"></path><path d="M1289,316L1346,544L1489,479Z" fill="#28265f" stroke="#28265f" stroke-width="1.51"></path><path d="M1441,-288L1212,-166L1491,-135Z" fill="#1f1e4c" stroke="#1f1e4c" stroke-width="1.51"></path><path d="M1212,-166L1298,-37L1491,-135Z" fill="#212051" stroke="#212051" stroke-width="1.51"></path><path d="M1035,1089L904,1129L1323,1164Z" fill="#211f50" stroke="#211f50" stroke-width="1.51"></path><path d="M1273,802L1340,942L1425,926Z" fill="#1d1b45" stroke="#1d1b45" stroke-width="1.51"></path><path d="M1252,-292L1212,-166L1441,-288Z" fill="#1d1c48" stroke="#1d1c48" stroke-width="1.51"></path><path d="M1273,802L1425,926L1465,873Z" fill="#1d1c47" stroke="#1d1c47" stroke-width="1.51"></path><path d="M892,-290L1066,-247L1252,-292Z" fill="#222052" stroke="#222052" stroke-width="1.51"></path><path d="M1298,-37L1340,141L1443,80Z" fill="#26245b" stroke="#26245b" stroke-width="1.51"></path><path d="M1340,141L1294,243L1412,261Z" fill="#292762" stroke="#292762" stroke-width="1.51"></path><path d="M1294,243L1289,316L1412,261Z" fill="#2a2865" stroke="#2a2865" stroke-width="1.51"></path><path d="M1212,-166L1236,-66L1298,-37Z" fill="#242256" stroke="#242256" stroke-width="1.51"></path><path d="M1159,1068L1323,1164L1340,942Z" fill="#1d1b46" stroke="#1d1b46" stroke-width="1.51"></path><path d="M1289,316L1134,411L1346,544Z" fill="#292763" stroke="#292763" stroke-width="1.51"></path><path d="M1346,544L1177,671L1386,655Z" fill="#242358" stroke="#242358" stroke-width="1.51"></path><path d="M1177,671L1273,802L1386,655Z" fill="#222153" stroke="#222153" stroke-width="1.51"></path><path d="M1159,1068L1035,1089L1323,1164Z" fill="#1f1e4c" stroke="#1f1e4c" stroke-width="1.51"></path><path d="M1273,802L1150,847L1340,942Z" fill="#1e1d4a" stroke="#1e1d4a" stroke-width="1.51"></path><path d="M1298,-37L1184,52L1340,141Z" fill="#26255d" stroke="#26255d" stroke-width="1.51"></path><path d="M1182,556L1177,671L1346,544Z" fill="#26255d" stroke="#26255d" stroke-width="1.51"></path><path d="M1134,411L1182,556L1346,544Z" fill="#282762" stroke="#282762" stroke-width="1.51"></path><path d="M1114,1011L1159,1068L1340,942Z" fill="#1e1d4a" stroke="#1e1d4a" stroke-width="1.51"></path><path d="M1150,847L1114,1011L1340,942Z" fill="#1e1d4a" stroke="#1e1d4a" stroke-width="1.51"></path><path d="M1146,216L1294,243L1340,141Z" fill="#292864" stroke="#292864" stroke-width="1.51"></path><path d="M1184,52L1146,216L1340,141Z" fill="#292763" stroke="#292763" stroke-width="1.51"></path><path d="M1146,216L1289,316L1294,243Z" fill="#2b2967" stroke="#2b2967" stroke-width="1.51"></path><path d="M1236,-66L1184,52L1298,-37Z" fill="#26245c" stroke="#26245c" stroke-width="1.51"></path><path d="M1146,216L1134,411L1289,316Z" fill="#2c2b6b" stroke="#2c2b6b" stroke-width="1.51"></path><path d="M1177,671L1150,847L1273,802Z" fill="#222053" stroke="#222053" stroke-width="1.51"></path><path d="M1066,-247L1212,-166L1252,-292Z" fill="#212050" stroke="#212050" stroke-width="1.51"></path><path d="M285,-275L473,-218L892,-290Z" fill="#2b2967" stroke="#2b2967" stroke-width="1.51"></path><path d="M1212,-166L975,-44L1236,-66Z" fill="#25245b" stroke="#25245b" stroke-width="1.51"></path><path d="M975,-44L1184,52L1236,-66Z" fill="#282661" stroke="#282661" stroke-width="1.51"></path><path d="M1066,-247L975,-44L1212,-166Z" fill="#26235a" stroke="#26235a" stroke-width="1.51"></path><path d="M990,365L1134,411L1146,216Z" fill="#2f2d70" stroke="#2f2d70" stroke-width="1.51"></path><path d="M1010,849L1150,847L1177,671Z" fill="#242256" stroke="#242256" stroke-width="1.51"></path><path d="M975,645L1010,849L1177,671Z" fill="#27255e" stroke="#27255e" stroke-width="1.51"></path><path d="M1013,592L1177,671L1182,556Z" fill="#292762" stroke="#292762" stroke-width="1.51"></path><path d="M1134,411L1013,592L1182,556Z" fill="#2b2967" stroke="#2b2967" stroke-width="1.51"></path><path d="M975,-44L984,43L1184,52Z" fill="#2b2967" stroke="#2b2967" stroke-width="1.51"></path><path d="M990,187L1146,216L1184,52Z" fill="#2c2b6a" stroke="#2c2b6a" stroke-width="1.51"></path><path d="M984,43L990,187L1184,52Z" fill="#2c2a6a" stroke="#2c2a6a" stroke-width="1.51"></path><path d="M1010,849L1114,1011L1150,847Z" fill="#211f50" stroke="#211f50" stroke-width="1.51"></path><path d="M1013,592L975,645L1177,671Z" fill="#292864" stroke="#292864" stroke-width="1.51"></path><path d="M990,187L990,365L1146,216Z" fill="#2f2d72" stroke="#2f2d72" stroke-width="1.51"></path><path d="M1114,1011L1060,1035L1159,1068Z" fill="#201f4f" stroke="#201f4f" stroke-width="1.51"></path><path d="M1060,1035L1035,1089L1159,1068Z" fill="#211f50" stroke="#211f50" stroke-width="1.51"></path><path d="M990,365L1013,592L1134,411Z" fill="#2d2b6d" stroke="#2d2b6d" stroke-width="1.51"></path><path d="M1010,849L1060,1035L1114,1011Z" fill="#212051" stroke="#212051" stroke-width="1.51"></path><path d="M990,365L909,487L1013,592Z" fill="#2e2d70" stroke="#2e2d70" stroke-width="1.51"></path><path d="M473,-218L579,-201L892,-290Z" fill="#2a2966" stroke="#2a2966" stroke-width="1.51"></path><path d="M701,1085L600,1105L904,1129Z" fill="#27265f" stroke="#27265f" stroke-width="1.51"></path><path d="M1010,849L935,1033L1060,1035Z" fill="#232155" stroke="#232155" stroke-width="1.51"></path><path d="M892,-290L975,-44L1066,-247Z" fill="#26255d" stroke="#26255d" stroke-width="1.51"></path><path d="M935,1033L1035,1089L1060,1035Z" fill="#232154" stroke="#232154" stroke-width="1.51"></path><path d="M984,43L895,119L990,187Z" fill="#2f2d71" stroke="#2f2d71" stroke-width="1.51"></path><path d="M890,348L990,365L990,187Z" fill="#323078" stroke="#323078" stroke-width="1.51"></path><path d="M975,645L821,680L1010,849Z" fill="#292864" stroke="#292864" stroke-width="1.51"></path><path d="M935,1033L904,1129L1035,1089Z" fill="#242257" stroke="#242257" stroke-width="1.51"></path><path d="M892,-290L753,-180L975,-44Z" fill="#292763" stroke="#292763" stroke-width="1.51"></path><path d="M753,-180L851,-12L975,-44Z" fill="#2c2a6a" stroke="#2c2a6a" stroke-width="1.51"></path><path d="M825,256L890,348L990,187Z" fill="#33317a" stroke="#33317a" stroke-width="1.51"></path><path d="M812,858L935,1033L1010,849Z" fill="#252359" stroke="#252359" stroke-width="1.51"></path><path d="M821,680L812,858L1010,849Z" fill="#282761" stroke="#282761" stroke-width="1.51"></path><path d="M909,487L975,645L1013,592Z" fill="#2d2b6c" stroke="#2d2b6c" stroke-width="1.51"></path><path d="M812,858L786,985L935,1033Z" fill="#26245b" stroke="#26245b" stroke-width="1.51"></path><path d="M975,-44L851,-12L984,43Z" fill="#2e2b6c" stroke="#2e2b6c" stroke-width="1.51"></path><path d="M890,348L909,487L990,365Z" fill="#312f75" stroke="#312f75" stroke-width="1.51"></path><path d="M895,119L825,256L990,187Z" fill="#312f76" stroke="#312f76" stroke-width="1.51"></path><path d="M909,487L821,680L975,645Z" fill="#2e2c6e" stroke="#2e2c6e" stroke-width="1.51"></path><path d="M851,-12L895,119L984,43Z" fill="#2f2d70" stroke="#2f2d70" stroke-width="1.51"></path><path d="M786,985L904,1129L935,1033Z" fill="#25245b" stroke="#25245b" stroke-width="1.51"></path><path d="M753,-180L724,-72L851,-12Z" fill="#2d2b6c" stroke="#2d2b6c" stroke-width="1.51"></path><path d="M579,-201L753,-180L892,-290Z" fill="#292864" stroke="#292864" stroke-width="1.51"></path><path d="M785,249L825,256L895,119Z" fill="#333179" stroke="#333179" stroke-width="1.51"></path><path d="M786,985L701,1085L904,1129Z" fill="#26255d" stroke="#26255d" stroke-width="1.51"></path><path d="M890,348L761,308L909,487Z" fill="#333179" stroke="#333179" stroke-width="1.51"></path><path d="M761,308L636,425L909,487Z" fill="#33317b" stroke="#33317b" stroke-width="1.51"></path><path d="M636,425L653,584L909,487Z" fill="#333078" stroke="#333078" stroke-width="1.51"></path><path d="M653,584L821,680L909,487Z" fill="#302e72" stroke="#302e72" stroke-width="1.51"></path><path d="M851,-12L716,98L895,119Z" fill="#312f74" stroke="#312f74" stroke-width="1.51"></path><path d="M716,98L785,249L895,119Z" fill="#323078" stroke="#323078" stroke-width="1.51"></path><path d="M825,256L761,308L890,348Z" fill="#34327e" stroke="#34327e" stroke-width="1.51"></path><path d="M653,584L738,694L821,680Z" fill="#2f2d70" stroke="#2f2d70" stroke-width="1.51"></path><path d="M738,694L812,858L821,680Z" fill="#2b2968" stroke="#2b2968" stroke-width="1.51"></path><path d="M724,-72L716,98L851,-12Z" fill="#302e73" stroke="#302e73" stroke-width="1.51"></path><path d="M738,694L653,757L812,858Z" fill="#2b2968" stroke="#2b2968" stroke-width="1.51"></path><path d="M785,249L761,308L825,256Z" fill="#34327d" stroke="#34327d" stroke-width="1.51"></path><path d="M653,757L529,929L786,985Z" fill="#292762" stroke="#292762" stroke-width="1.51"></path><path d="M653,757L786,985L812,858Z" fill="#282760" stroke="#282760" stroke-width="1.51"></path><path d="M526,164L761,308L785,249Z" fill="#353380" stroke="#353380" stroke-width="1.51"></path><path d="M716,98L526,164L785,249Z" fill="#35327d" stroke="#35327d" stroke-width="1.51"></path><path d="M529,929L701,1085L786,985Z" fill="#282761" stroke="#282761" stroke-width="1.51"></path><path d="M558,796L529,929L653,757Z" fill="#2b2a69" stroke="#2b2a69" stroke-width="1.51"></path><path d="M623,-78L716,98L724,-72Z" fill="#302e74" stroke="#302e74" stroke-width="1.51"></path><path d="M623,-78L724,-72L753,-180Z" fill="#2d2c6d" stroke="#2d2c6d" stroke-width="1.51"></path><path d="M526,164L636,425L761,308Z" fill="#373584" stroke="#373584" stroke-width="1.51"></path><path d="M579,-201L623,-78L753,-180Z" fill="#2d2b6c" stroke="#2d2b6c" stroke-width="1.51"></path><path d="M526,164L466,243L636,425Z" fill="#383686" stroke="#383686" stroke-width="1.51"></path><path d="M529,929L600,1105L701,1085Z" fill="#292863" stroke="#292863" stroke-width="1.51"></path><path d="M653,584L653,757L738,694Z" fill="#2f2d70" stroke="#2f2d70" stroke-width="1.51"></path><path d="M623,-78L508,38L716,98Z" fill="#323079" stroke="#323079" stroke-width="1.51"></path><path d="M508,38L526,164L716,98Z" fill="#34327d" stroke="#34327d" stroke-width="1.51"></path><path d="M504,695L653,757L653,584Z" fill="#302e73" stroke="#302e73" stroke-width="1.51"></path><path d="M466,243L417,340L636,425Z" fill="#383686" stroke="#383686" stroke-width="1.51"></path><path d="M504,695L558,796L653,757Z" fill="#2e2c6f" stroke="#2e2c6f" stroke-width="1.51"></path><path d="M519,529L476,658L653,584Z" fill="#33317a" stroke="#33317a" stroke-width="1.51"></path><path d="M476,658L504,695L653,584Z" fill="#312f77" stroke="#312f77" stroke-width="1.51"></path><path d="M636,425L519,529L653,584Z" fill="#34327c" stroke="#34327c" stroke-width="1.51"></path><path d="M468,587L476,658L519,529Z" fill="#33317a" stroke="#33317a" stroke-width="1.51"></path><path d="M417,340L519,529L636,425Z" fill="#363482" stroke="#363482" stroke-width="1.51"></path><path d="M579,-201L441,-99L623,-78Z" fill="#2f2d71" stroke="#2f2d71" stroke-width="1.51"></path><path d="M441,-99L508,38L623,-78Z" fill="#323077" stroke="#323077" stroke-width="1.51"></path><path d="M473,-218L441,-99L579,-201Z" fill="#2e2c6e" stroke="#2e2c6e" stroke-width="1.51"></path><path d="M529,929L477,928L600,1105Z" fill="#2a2965" stroke="#2a2965" stroke-width="1.51"></path><path d="M477,928L401,1135L600,1105Z" fill="#2a2865" stroke="#2a2865" stroke-width="1.51"></path><path d="M508,38L464,99L526,164Z" fill="#35337e" stroke="#35337e" stroke-width="1.51"></path><path d="M477,928L529,929L558,796Z" fill="#2b2967" stroke="#2b2967" stroke-width="1.51"></path><path d="M504,695L406,851L558,796Z" fill="#2d2c6d" stroke="#2d2c6d" stroke-width="1.51"></path><path d="M406,851L477,928L558,796Z" fill="#2b2967" stroke="#2b2967" stroke-width="1.51"></path><path d="M417,340L468,587L519,529Z" fill="#34327e" stroke="#34327e" stroke-width="1.51"></path><path d="M464,99L466,243L526,164Z" fill="#363480" stroke="#363480" stroke-width="1.51"></path><path d="M-221,-256L100,-205L285,-275Z" fill="#242358" stroke="#242358" stroke-width="1.51"></path><path d="M281,1097L74,1179L401,1135Z" fill="#26255d" stroke="#26255d" stroke-width="1.51"></path><path d="M417,340L305,624L468,587Z" fill="#33317a" stroke="#33317a" stroke-width="1.51"></path><path d="M476,658L406,851L504,695Z" fill="#2e2c6f" stroke="#2e2c6f" stroke-width="1.51"></path><path d="M329,-36L464,99L508,38Z" fill="#323079" stroke="#323079" stroke-width="1.51"></path><path d="M441,-99L329,-36L508,38Z" fill="#312f75" stroke="#312f75" stroke-width="1.51"></path><path d="M281,1097L401,1135L477,928Z" fill="#282761" stroke="#282761" stroke-width="1.51"></path><path d="M-221,-256L-55,-201L100,-205Z" fill="#232154" stroke="#232154" stroke-width="1.51"></path><path d="M236,374L305,624L417,340Z" fill="#34317a" stroke="#34317a" stroke-width="1.51"></path><path d="M464,99L275,210L466,243Z" fill="#35337f" stroke="#35337f" stroke-width="1.51"></path><path d="M285,-275L441,-99L473,-218Z" fill="#2b2a69" stroke="#2b2a69" stroke-width="1.51"></path><path d="M468,587L305,624L476,658Z" fill="#312f76" stroke="#312f76" stroke-width="1.51"></path><path d="M305,624L406,851L476,658Z" fill="#2e2c6e" stroke="#2e2c6e" stroke-width="1.51"></path><path d="M406,851L216,955L477,928Z" fill="#282660" stroke="#282660" stroke-width="1.51"></path><path d="M216,955L281,1097L477,928Z" fill="#27265f" stroke="#27265f" stroke-width="1.51"></path><path d="M329,-36L270,51L464,99Z" fill="#312f77" stroke="#312f77" stroke-width="1.51"></path><path d="M270,51L275,210L464,99Z" fill="#333179" stroke="#333179" stroke-width="1.51"></path><path d="M275,210L417,340L466,243Z" fill="#363482" stroke="#363482" stroke-width="1.51"></path><path d="M236,374L202,561L305,624Z" fill="#312f75" stroke="#312f75" stroke-width="1.51"></path><path d="M305,624L214,844L406,851Z" fill="#2b2967" stroke="#2b2967" stroke-width="1.51"></path><path d="M285,-275L329,-36L441,-99Z" fill="#2d2b6b" stroke="#2d2b6b" stroke-width="1.51"></path><path d="M275,210L236,374L417,340Z" fill="#363480" stroke="#363480" stroke-width="1.51"></path><path d="M214,844L216,955L406,851Z" fill="#27265e" stroke="#27265e" stroke-width="1.51"></path><path d="M174,402L202,561L236,374Z" fill="#323077" stroke="#323077" stroke-width="1.51"></path><path d="M100,-205L102,-98L285,-275Z" fill="#282761" stroke="#282761" stroke-width="1.51"></path><path d="M90,733L214,844L305,624Z" fill="#2b2966" stroke="#2b2966" stroke-width="1.51"></path><path d="M285,-275L102,-98L329,-36Z" fill="#2b2968" stroke="#2b2968" stroke-width="1.51"></path><path d="M102,-98L270,51L329,-36Z" fill="#2e2c6f" stroke="#2e2c6f" stroke-width="1.51"></path><path d="M270,51L136,210L275,210Z" fill="#323077" stroke="#323077" stroke-width="1.51"></path><path d="M202,561L90,733L305,624Z" fill="#2e2c6d" stroke="#2e2c6d" stroke-width="1.51"></path><path d="M102,-98L86,30L270,51Z" fill="#2e2c6e" stroke="#2e2c6e" stroke-width="1.51"></path><path d="M136,210L236,374L275,210Z" fill="#34327c" stroke="#34327c" stroke-width="1.51"></path><path d="M216,955L146,954L281,1097Z" fill="#26245b" stroke="#26245b" stroke-width="1.51"></path><path d="M86,30L136,210L270,51Z" fill="#302e73" stroke="#302e73" stroke-width="1.51"></path><path d="M146,954L74,1179L281,1097Z" fill="#25245a" stroke="#25245a" stroke-width="1.51"></path><path d="M174,402L77,508L202,561Z" fill="#302e73" stroke="#302e73" stroke-width="1.51"></path><path d="M90,733L90,815L214,844Z" fill="#282660" stroke="#282660" stroke-width="1.51"></path><path d="M214,844L146,954L216,955Z" fill="#26245b" stroke="#26245b" stroke-width="1.51"></path><path d="M136,210L174,402L236,374Z" fill="#33317b" stroke="#33317b" stroke-width="1.51"></path><path d="M136,210L-2,315L174,402Z" fill="#323178" stroke="#323178" stroke-width="1.51"></path><path d="M77,508L90,733L202,561Z" fill="#2e2b6d" stroke="#2e2b6d" stroke-width="1.51"></path><path d="M90,815L146,954L214,844Z" fill="#26245c" stroke="#26245c" stroke-width="1.51"></path><path d="M77,508L-12,693L90,733Z" fill="#2b2866" stroke="#2b2866" stroke-width="1.51"></path><path d="M-10,918L74,1179L146,954Z" fill="#232256" stroke="#232256" stroke-width="1.51"></path><path d="M-2,315L77,508L174,402Z" fill="#302e73" stroke="#302e73" stroke-width="1.51"></path><path d="M-10,918L-14,1192L74,1179Z" fill="#222153" stroke="#222153" stroke-width="1.51"></path><path d="M86,30L-82,188L136,210Z" fill="#2e2c6f" stroke="#2e2c6f" stroke-width="1.51"></path><path d="M90,815L-10,918L146,954Z" fill="#232257" stroke="#232257" stroke-width="1.51"></path><path d="M-2,315L-35,487L77,508Z" fill="#2e2c6e" stroke="#2e2c6e" stroke-width="1.51"></path><path d="M-82,188L-2,315L136,210Z" fill="#2f2e72" stroke="#2f2e72" stroke-width="1.51"></path><path d="M-35,487L-12,693L77,508Z" fill="#2b2969" stroke="#2b2969" stroke-width="1.51"></path><path d="M-75,-115L-93,13L86,30Z" fill="#292864" stroke="#292864" stroke-width="1.51"></path><path d="M-93,13L-82,188L86,30Z" fill="#2b2a68" stroke="#2b2a68" stroke-width="1.51"></path><path d="M90,733L-17,758L90,815Z" fill="#27255e" stroke="#27255e" stroke-width="1.51"></path><path d="M-75,-115L86,30L102,-98Z" fill="#2a2864" stroke="#2a2864" stroke-width="1.51"></path><path d="M100,-205L-55,-201L102,-98Z" fill="#27255e" stroke="#27255e" stroke-width="1.51"></path><path d="M-55,-201L-75,-115L102,-98Z" fill="#27255c" stroke="#27255c" stroke-width="1.51"></path><path d="M-12,693L-17,758L90,733Z" fill="#27265f" stroke="#27265f" stroke-width="1.51"></path><path d="M-17,758L-10,918L90,815Z" fill="#242358" stroke="#242358" stroke-width="1.51"></path><path d="M-191,968L-14,1192L-10,918Z" fill="#201f4e" stroke="#201f4e" stroke-width="1.51"></path><path d="M-230,571L-162,714L-35,487Z" fill="#272660" stroke="#272660" stroke-width="1.51"></path><path d="M-191,968L-213,1167L-14,1192Z" fill="#1e1d4b" stroke="#1e1d4b" stroke-width="1.51"></path><path d="M-35,487L-162,714L-12,693Z" fill="#282661" stroke="#282661" stroke-width="1.51"></path><path d="M-132,882L-191,968L-10,918Z" fill="#1f1e4c" stroke="#1f1e4c" stroke-width="1.51"></path><path d="M-17,758L-132,882L-10,918Z" fill="#222152" stroke="#222152" stroke-width="1.51"></path><path d="M-82,188L-144,270L-2,315Z" fill="#2d2c6d" stroke="#2d2c6d" stroke-width="1.51"></path><path d="M-160,406L-35,487L-2,315Z" fill="#2d2b6b" stroke="#2d2b6b" stroke-width="1.51"></path><path d="M-144,270L-160,406L-2,315Z" fill="#2d2c6d" stroke="#2d2c6d" stroke-width="1.51"></path><path d="M-162,714L-17,758L-12,693Z" fill="#26245b" stroke="#26245b" stroke-width="1.51"></path><path d="M-162,714L-132,882L-17,758Z" fill="#232154" stroke="#232154" stroke-width="1.51"></path><path d="M-160,406L-230,571L-35,487Z" fill="#292864" stroke="#292864" stroke-width="1.51"></path><path d="M-93,13L-230,50L-82,188Z" fill="#292763" stroke="#292763" stroke-width="1.51"></path><path d="M-192,-38L-93,13L-75,-115Z" fill="#26255d" stroke="#26255d" stroke-width="1.51"></path><path d="M-221,-256L-75,-115L-55,-201Z" fill="#222153" stroke="#222153" stroke-width="1.51"></path><path d="M-221,-256L-192,-38L-75,-115Z" fill="#232154" stroke="#232154" stroke-width="1.51"></path><path d="M-230,50L-144,270L-82,188Z" fill="#2a2866" stroke="#2a2866" stroke-width="1.51"></path><path d="M-192,-38L-230,50L-93,13Z" fill="#27255e" stroke="#27255e" stroke-width="1.51"></path><path d="M-162,714L-191,968L-132,882Z" fill="#201e4d" stroke="#201e4d" stroke-width="1.51"></path><path d="M-230,50L-160,406L-144,270Z" fill="#2b2967" stroke="#2b2967" stroke-width="1.51"></path><path d="M-230,571L-191,968L-162,714Z" fill="#222052" stroke="#222052" stroke-width="1.51"></path><path d="M-230,50L-230,571L-160,406Z" fill="#2a2966" stroke="#2a2966" stroke-width="1.51"></path><path d="M-221,-256L-230,50L-192,-38Z" fill="#232256" stroke="#232256" stroke-width="1.51"></path><path d="M-230,571L-213,1167L-191,968Z" fill="#1d1c47" stroke="#1d1c47" stroke-width="1.51"></path></svg>
