<?xml version="1.0" encoding="utf-8"?>
<!-- Generator: Adobe Illustrator 22.1.0, SVG Export Plug-In . SVG Version: 6.00 Build 0)  -->
<svg version="1.1" id="Layer_1" xmlns="http://www.w3.org/2000/svg" xmlns:xlink="http://www.w3.org/1999/xlink" x="0px" y="0px"
	 viewBox="0 0 200 75" style="enable-background:new 0 0 200 75;" xml:space="preserve">
<style type="text/css">
	.st0{fill:#FFFFFF;}
	.st1{opacity:0.59;fill:#FFFFFF;}
	.st2{opacity:0.8;fill:#FFFFFF;}
</style>
<path class="st0" d="M102.1,73c-2.2-1.9-2.7-3.7-2.2-7c0.3-1.7,1.7-3.1,3.2-3.1c6.5,0,13,0,19.5,0c17.5,0,34.9,0,52.4,0
	c0.7,0,1.4,0.1,2,0.6c0,1.2,0,2.4,0,3.5c-0.6,3.3-2.2,5.3-4.8,6C148.8,73,125.4,73,102.1,73z"/>
<path class="st1" d="M23,62.9c23,0,46,0,69-0.1c2,0,3.6,2.1,3.6,4.5c0,2.5-0.4,4.5-2.2,5.6c-21.8,0-43.7,0-65.5,0
	c-2.6-0.7-4.3-2.7-4.8-6C23,65.7,23,64.3,23,62.9z"/>
<path class="st2" d="M100.1,2c1.3,2.2,1.2,4.5,0.5,6.8c-0.4,1.4-1.5,2.2-2.8,2.2c-24.1,0-48.2,0-72.3,0c-1,0-1.8-0.7-2.5-1.4
	c0-0.5,0-1.1,0-1.6c0.6-3.3,2.2-5.3,4.8-6C51.9,2,76,2,100.1,2z"/>
<path class="st1" d="M177,11c-22.7,0-45.4,0-68.1,0.1c-2,0-3.8-2-3.6-4.6c0.1-1.6,0-3.2,0.9-4.5c22,0,44,0,66,0
	c2.6,0.7,4.3,2.7,4.8,6C177,9,177,10,177,11z"/>
<path class="st0" d="M107.5,47.4c11.9,0,23.7,0,35.6,0c2.5,0,3.7,1.6,3.7,4.7c0,1.9-0.1,3.6-1.5,4.7c-0.6,0.5-1.3,0.6-2,0.6
	c-23.9,0-47.8,0-71.6,0c-2.2,0-3.5-1.6-3.5-4.4c0-1.9,0-3.8,1.5-5c0.7-0.5,1.3-0.6,2.1-0.6C83.7,47.4,95.6,47.4,107.5,47.4z"/>
<path class="st0" d="M95.5,16.4c11.8,0,23.7,0,35.5,0c2.6,0,3.8,1.5,3.8,4.8c0,1.9-0.2,3.6-1.6,4.7c-0.6,0.4-1.2,0.6-1.9,0.6
	c-23.9,0-47.8,0-71.6,0c-2.2,0-3.5-1.6-3.5-4.4c0-1.9,0-3.8,1.5-5c0.7-0.5,1.3-0.6,2.1-0.6C71.7,16.4,83.6,16.4,95.5,16.4z"/>
<path class="st1" d="M127.2,31.9c12,0,24,0,35.9,0c0.8,0,1.5,0.2,2.1,0.8c0.5,0.5,0.9,1.1,0.8,2.1c-0.1,1.4,0,2.7,0,4.1
	c0,1.8-1,3-2.4,3.1c-0.3,0-0.5,0-0.8,0c-23.8,0-47.6,0-71.4,0.1c-2.1,0-3.9-2.1-3.6-4.5c0.1-0.9-0.1-1.8,0.1-2.7
	c0.3-1.8,1.6-2.9,3.2-2.9C103.2,31.9,115.2,31.9,127.2,31.9z"/>
<path class="st2" d="M58.6,31.9c6.8,0,13.5,0.1,20.3-0.1c3.4-0.1,4.9,1.5,4.6,5.9c-0.1,0.8-0.1,1.5-0.4,2.2c-0.6,1.3-1.5,2-2.8,2
	c-14.6,0-29.1,0-43.7,0c-0.6,0-0.8-0.1-0.8-1c0-2.7,0.3-5.3-0.2-8c-0.2-1.1,0.4-1.1,1.1-1.1C44,31.9,51.3,31.9,58.6,31.9z"/>
<path class="st0" d="M157.2,16.4c4.9,0,9.8,0,14.7,0c0.4,0,1-0.4,1.1,0.6c0.1,0.8,0.2,1.3-0.6,1.8c-2,1.4-3.2,3.7-4.2,6.2
	c-0.4,1-0.9,1.4-1.8,1.4c-8-0.1-15.9,0-23.9,0c-2.1,0-3.4-1.6-3.4-4.2c0-0.6,0-1.3,0-1.9c0-2.3,1.4-3.9,3.2-4
	C147.3,16.4,152.3,16.4,157.2,16.4z"/>
<path class="st0" d="M46.4,57.5c-4.7,0-9.3,0-14,0c-0.4,0-1,0.2-1-0.4c0.1-0.9-0.8-1.5-0.1-2.5c1.4-1.9,2.4-4.2,3.2-6.5
	c0.2-0.6,0.5-0.7,0.9-0.7c8.4,0,16.9,0,25.3,0c1.7,0,3.1,1.7,3.1,3.9c0,0.6,0,1.3,0,1.9c0,2.6-1.3,4.2-3.4,4.3
	C55.8,57.5,51.1,57.5,46.4,57.5z"/>
<path class="st1" d="M28.2,16.4c5.6,0,10.9,0,16.2,0c1.3,0,2.7,0,4,0c2.1,0,3.4,1.7,3.4,4.3c0,1.3,0.2,2.7-0.5,3.9
	c-0.7,1.2-1.5,1.8-2.6,1.8c-4.6,0-9.2,0-13.7,0c-0.5,0-0.8-0.2-1-0.8c-1.1-2.9-2.5-5.5-4.9-7.2C28.5,18.1,28.7,17.2,28.2,16.4z"/>
<path class="st2" d="M162.4,57.5c-2.7,0-5.3,0-8,0c-1.8,0-3.1-1.7-3.2-3.9c-0.2-4.7,1-6.4,4.9-6.2c3.3,0.2,6.7,0.1,10,0
	c0.7,0,1.1,0.1,1.5,1.1c0.8,2.5,2,4.8,3.6,6.7c0.5,0.6,0,1.3,0.1,2c0.1,0.3-0.5,0.2-0.8,0.2C167.8,57.5,165.1,57.5,162.4,57.5z"/>
</svg>
